<svg xmlns="http://www.w3.org/2000/svg" width="1200" height="630" viewBox="0 0 1200 630" role="img" aria-labelledby="title desc">
  <title id="title">Vanity SOL GPU Open Graph Image</title>
  <desc id="desc">Vanity SOL GPU card with Solana-themed styling and logo.</desc>
  <defs>
    <linearGradient id="bg" x1="0" y1="0" x2="1" y2="1">
      <stop offset="0%" stop-color="#0a0f1e"/>
      <stop offset="55%" stop-color="#11152a"/>
      <stop offset="100%" stop-color="#060911"/>
    </linearGradient>
    <radialGradient id="glowA" cx="0.15" cy="0.2" r="0.7">
      <stop offset="0%" stop-color="#9945ff" stop-opacity="0.4"/>
      <stop offset="100%" stop-color="#9945ff" stop-opacity="0"/>
    </radialGradient>
    <radialGradient id="glowB" cx="0.82" cy="0.82" r="0.6">
      <stop offset="0%" stop-color="#14f195" stop-opacity="0.35"/>
      <stop offset="100%" stop-color="#14f195" stop-opacity="0"/>
    </radialGradient>
    <linearGradient id="sol" x1="0" y1="0" x2="1" y2="1">
      <stop offset="0%" stop-color="#14f195"/>
      <stop offset="100%" stop-color="#9945ff"/>
    </linearGradient>
  </defs>

  <rect width="1200" height="630" fill="url(#bg)"/>
  <rect width="1200" height="630" fill="url(#glowA)"/>
  <rect width="1200" height="630" fill="url(#glowB)"/>

  <g transform="translate(84 96)">
    <rect x="0" y="0" width="130" height="130" rx="26" fill="rgba(255,255,255,0.03)" stroke="rgba(255,255,255,0.10)"/>
    <g transform="translate(28 32)">
      <path d="M12 0h64l-10 11H2L12 0z" fill="url(#sol)"/>
      <path d="M2 23h64l-10 11H-8l10-11z" fill="url(#sol)"/>
      <path d="M12 46h64l-10 11H2l10-11z" fill="url(#sol)"/>
    </g>

    <text x="170" y="44" fill="#e8f6ff" font-family="'SF Pro Display','Segoe UI',sans-serif" font-size="62" font-weight="760">Vanity SOL GPU</text>
    <text x="170" y="102" fill="#c7d8f8" font-family="'SF Pro Display','Segoe UI',sans-serif" font-size="30" font-weight="540">Solana Vanity Wallet + Program ID Generator</text>

    <rect x="170" y="150" width="860" height="236" rx="20" fill="rgba(255,255,255,0.03)" stroke="rgba(255,255,255,0.10)"/>
    <text x="208" y="214" fill="#d9f4ff" font-family="'SF Mono','SFMono-Regular',Menlo,monospace" font-size="30">Prefix: <tspan fill="#14f195">Sol</tspan></text>
    <text x="208" y="262" fill="#d9f4ff" font-family="'SF Mono','SFMono-Regular',Menlo,monospace" font-size="30">Suffix: <tspan fill="#9945ff">pump</tspan></text>
    <text x="208" y="325" fill="#c3d6ef" font-family="'SF Pro Display','Segoe UI',sans-serif" font-size="28">Local-only key generation • Multi-core workers • Solana keypair JSON export</text>
  </g>
</svg>
