<svg xmlns="http://www.w3.org/2000/svg" width="1200" height="630" viewBox="0 0 1200 630" role="img" aria-labelledby="title desc">
  <title id="title">Vanity ETH GPU Open Graph Image</title>
  <desc id="desc">A premium cover image for Vanity ETH GPU showing wallet and first contract vanity generation.</desc>
  <defs>
    <linearGradient id="bg" x1="0" y1="0" x2="1" y2="1">
      <stop offset="0%" stop-color="#060A14"/>
      <stop offset="55%" stop-color="#0B1120"/>
      <stop offset="100%" stop-color="#0E1B34"/>
    </linearGradient>
    <radialGradient id="glowA" cx="18%" cy="20%" r="52%">
      <stop offset="0%" stop-color="#5B8CFF" stop-opacity="0.45"/>
      <stop offset="100%" stop-color="#5B8CFF" stop-opacity="0"/>
    </radialGradient>
    <radialGradient id="glowB" cx="82%" cy="82%" r="54%">
      <stop offset="0%" stop-color="#3CD6A8" stop-opacity="0.28"/>
      <stop offset="100%" stop-color="#3CD6A8" stop-opacity="0"/>
    </radialGradient>
    <linearGradient id="line" x1="0" y1="0" x2="1" y2="0">
      <stop offset="0%" stop-color="#6A9DFF"/>
      <stop offset="100%" stop-color="#43E3B2"/>
    </linearGradient>
    <filter id="soft" x="-20%" y="-20%" width="140%" height="140%">
      <feGaussianBlur stdDeviation="24"/>
    </filter>
    <pattern id="grid" width="28" height="28" patternUnits="userSpaceOnUse">
      <path d="M 28 0 L 0 0 0 28" fill="none" stroke="#90A7DD" stroke-opacity="0.12" stroke-width="1"/>
    </pattern>
  </defs>

  <rect width="1200" height="630" fill="url(#bg)"/>
  <rect width="1200" height="630" fill="url(#grid)" opacity="0.25"/>
  <rect width="1200" height="630" fill="url(#glowA)"/>
  <rect width="1200" height="630" fill="url(#glowB)"/>

  <g filter="url(#soft)">
    <circle cx="205" cy="120" r="90" fill="#4E7FFF" fill-opacity="0.35"/>
    <circle cx="1030" cy="530" r="120" fill="#39C79E" fill-opacity="0.24"/>
  </g>

  <rect x="70" y="62" width="1060" height="506" rx="28" fill="#0E162A" fill-opacity="0.62" stroke="#8AB2FF" stroke-opacity="0.3" stroke-width="2"/>
  <line x1="70" y1="136" x2="1130" y2="136" stroke="url(#line)" stroke-opacity="0.45" stroke-width="2"/>

  <g transform="translate(105 92)">
    <rect x="0" y="0" width="42" height="42" rx="12" fill="#5F83F5"/>
    <path d="M21 6L7 21L21 36L35 21L21 6ZM21 6V21M21 21H35" fill="none" stroke="#F7FAFF" stroke-width="2.4" stroke-linecap="round" stroke-linejoin="round"/>
    <text x="58" y="28" fill="#EAF2FF" font-family="'SF Pro Display', 'Inter', 'Segoe UI', sans-serif" font-size="30" font-weight="700" letter-spacing="0.3">Vanity ETH GPU</text>
  </g>

  <g transform="translate(106 188)">
    <text x="0" y="0" fill="#F7FAFF" font-family="'SF Pro Display', 'Inter', 'Segoe UI', sans-serif" font-size="64" font-weight="760" letter-spacing="-0.8">Find Elite Ethereum Vanity Addresses</text>
    <text x="0" y="56" fill="#BCD0F8" font-family="'SF Pro Display', 'Inter', 'Segoe UI', sans-serif" font-size="31" font-weight="520">Wallet and first-contract deploy targets with GPU, WASM, and CPU backends.</text>
  </g>

  <g transform="translate(106 332)">
    <rect x="0" y="0" width="364" height="58" rx="14" fill="#132440" stroke="#79A6FF" stroke-opacity="0.55"/>
    <text x="20" y="36" fill="#DCEBFF" font-family="'SF Pro Display', 'Inter', 'Segoe UI', sans-serif" font-size="25" font-weight="600">Local-only private key generation</text>

    <rect x="382" y="0" width="244" height="58" rx="14" fill="#132440" stroke="#79A6FF" stroke-opacity="0.55"/>
    <text x="403" y="36" fill="#DCEBFF" font-family="'SF Pro Display', 'Inter', 'Segoe UI', sans-serif" font-size="25" font-weight="600">WebGPU speed</text>

    <rect x="638" y="0" width="368" height="58" rx="14" fill="#132440" stroke="#5ED7AE" stroke-opacity="0.6"/>
    <text x="661" y="36" fill="#D6FFF1" font-family="'SF Pro Display', 'Inter', 'Segoe UI', sans-serif" font-size="25" font-weight="600">First contract (CREATE nonce 0)</text>
  </g>

  <g transform="translate(106 430)">
    <rect x="0" y="0" width="994" height="96" rx="16" fill="#09111E" stroke="#6B8CC8" stroke-opacity="0.5"/>
    <text x="24" y="38" fill="#8EACDF" font-family="ui-monospace, 'SF Mono', Menlo, Monaco, monospace" font-size="24" font-weight="500">MATCHED</text>
    <text x="24" y="72" fill="#EAF3FF" font-family="ui-monospace, 'SF Mono', Menlo, Monaco, monospace" font-size="34" font-weight="700">0x</text>
    <text x="69" y="72" fill="#56B5FF" font-family="ui-monospace, 'SF Mono', Menlo, Monaco, monospace" font-size="34" font-weight="700">c0ffee</text>
    <text x="208" y="72" fill="#DCE9FF" font-family="ui-monospace, 'SF Mono', Menlo, Monaco, monospace" font-size="34">9b4a7d8e1f22a6c4d3f1019</text>
    <text x="780" y="72" fill="#4DE7B0" font-family="ui-monospace, 'SF Mono', Menlo, Monaco, monospace" font-size="34" font-weight="700">beef</text>
  </g>
</svg>
