<svg xmlns="http://www.w3.org/2000/svg" width="1200" height="600" viewBox="0 0 1200 600" role="img" aria-labelledby="title desc">
  <title id="title">Vanity SOL GPU Twitter Card</title>
  <desc id="desc">Social card for the Solana vanity address generator.</desc>
  <defs>
    <linearGradient id="bg" x1="0" y1="0" x2="1" y2="1">
      <stop offset="0%" stop-color="#0b1020"/>
      <stop offset="100%" stop-color="#070a13"/>
    </linearGradient>
    <linearGradient id="sol" x1="0" y1="0" x2="1" y2="1">
      <stop offset="0%" stop-color="#14f195"/>
      <stop offset="100%" stop-color="#9945ff"/>
    </linearGradient>
  </defs>

  <rect width="1200" height="600" fill="url(#bg)"/>
  <circle cx="220" cy="140" r="220" fill="#9945ff" opacity="0.18"/>
  <circle cx="1000" cy="530" r="260" fill="#14f195" opacity="0.16"/>

  <g transform="translate(92 92)">
    <rect x="0" y="0" width="1020" height="416" rx="28" fill="rgba(255,255,255,0.03)" stroke="rgba(255,255,255,0.10)"/>

    <g transform="translate(52 58)">
      <path d="M15 0h90l-14 15H1L15 0z" fill="url(#sol)"/>
      <path d="M1 31h90l-14 15H-13L1 31z" fill="url(#sol)"/>
      <path d="M15 62h90l-14 15H1l14-15z" fill="url(#sol)"/>
    </g>

    <text x="188" y="118" fill="#ecf5ff" font-family="'SF Pro Display','Segoe UI',sans-serif" font-size="66" font-weight="760">Vanity SOL GPU</text>
    <text x="188" y="170" fill="#d0def7" font-family="'SF Pro Display','Segoe UI',sans-serif" font-size="30" font-weight="520">Vanity Wallet + Program ID Generator</text>

    <text x="188" y="252" fill="#bcd0ef" font-family="'SF Pro Display','Segoe UI',sans-serif" font-size="28">Multi-core local search • Base58 prefix/suffix matching</text>
    <text x="188" y="302" fill="#bcd0ef" font-family="'SF Pro Display','Segoe UI',sans-serif" font-size="28">No server calls • Download Solana keypair JSON</text>

    <rect x="188" y="342" width="520" height="52" rx="12" fill="rgba(255,255,255,0.04)" stroke="rgba(255,255,255,0.12)"/>
    <text x="214" y="376" fill="#e0f6ff" font-family="'SF Mono','SFMono-Regular',Menlo,monospace" font-size="27">Solxxxxxxxxxxxxxxxxxxxxxxxxxxxxpump</text>
  </g>
</svg>
